<svg height="512pt" preserveAspectRatio="xMidYMid meet" viewBox="0 0 512 512" width="512pt" xmlns="http://www.w3.org/2000/svg"><g fill="#e935c1" transform="matrix(.1 0 0 -.1 0 512)"><path d="m3315 4454c-65-16-144-46-225-86-146-72-176-100-435-397-438-503-655-840-880-1370-48-112-101-245-119-295-21-58-44-103-64-124-42-45-58-102-44-167 9-48 8-52-19-83-29-33-38-75-19-87 6-3 10-10 10-14 0-16-126-68-311-130-201-67-280-107-316-160-27-40-30-104-9-156 20-46 88-118 162-171 207-148 658-273 1129-313 695-60 1690 158 1977 433 65 62 88 111 88 188 0 75-36 147-96 193-97 74-263 131-454 155-93 12-96 13-150 60l-54 49-7 73c-6 68-9 75-43 104-33 29-37 36-31 67 8 43-11 116-120 443-96 289-118 368-139 514-21 143-40 440-33 523 12 147 77 289 256 565 62 95 111 180 109 190-5 26-49 25-163-4zm85-40c0-3-36-45-80-92-155-167-250-325-289-479-28-110-25-146 4-53 44 137 164 346 265 460 29 33 20 15-33-66-88-131-177-311-207-414-19-64-23-109-27-302-8-334 9-429 149-827 90-257 142-436 136-467-3-20-153-69-332-110-84-19-124-24-170-19-35 4-133-1-231-10-122-12-207-15-300-11-71 4-173 9-225 12-146 7-360 65-360 98 0 6 16 61 36 123 28 87 51 136 105 220 70 109 96 159 258 495 49 104 116 232 147 285 88 151 284 436 379 553 47 58 132 166 189 240 122 161 178 213 284 268 119 62 302 120 302 96zm6-2306c4-6 10-29 14-49 8-43-2-57-60-82l-35-15 56-1c36-1 61-6 68-15 10-12 4-16-36-21-75-10-145-24-331-66-96-21-182-39-192-39-15 0-18 10-19 69-1 58 2 70 17 74 9 3 77 20 149 38 73 18 131 34 129 37-2 2-42-3-88-12-45-9-117-18-158-21-71-5-66-3 75 29 83 19 191 46 240 59 99 28 160 33 171 15zm-652-87c12-18 26-155 20-188-3-18-14-38-24-43-17-9-18-3-19 83 0 51-4 104-10 119-5 14-7 29-4 32 9 9 31 7 37-3zm73-42c6-24 12-74 12-111 1-59-1-68-17-68-15 0-17 11-18 78 0 42-4 94-8 116-11 55 15 43 31-15zm-469 25 232-7v-52-52l-57-13c-88-19-352-25-466-10-54 7-95 16-90 20 4 4 29 15 55 25 65 24 73 36 43 65-30 28-23 44 19 36 17-3 136-9 264-12zm318-9c22-33 32-188 14-210-28-33-38-17-39 63 0 42-5 93-11 112-5 19-10 41-10 47 0 22 29 14 46-12zm-826-171c58-13 137-28 175-34 88-12 389-13 475 0 58 8 67 7 84-10 11-11 18-22 15-24-11-12-187-26-319-26-157 0-272 15-390 50-83 25-180 65-180 76 0 3 8 3 18-1 9-4 64-18 122-31zm1638 19c17-4-5-13-85-33-59-16-180-54-268-85s-218-77-289-101c-109-38-245-108-233-120 7-8 267 81 421 143 219 88 397 148 484 163 197 33 557-80 644-203 32-45 35-105 6-147-31-46-90-76-293-150-93-34-188-68-210-77-288-112-663-199-1025-239-301-32-753-6-1060 62-375 83-645 244-645 385 0 75 88 147 191 155 94 7 281 65 298 92 3 5-54-10-126-34-176-58-188-55-18 5 149 52 202 77 271 126l47 33 108-40c385-141 615-138 1384 22 199 42 346 58 398 43z"/><path d="m3002 3685c0-16 2-22 5-12 2 9 2 23 0 30-3 6-5-1-5-18z"/><path d="m2905 3365c21-269 45-399 106-585 44-136 123-312 113-250-4 19-29 109-56 199-61 201-98 360-133 556-15 82-29 152-32 155s-2-31 2-75z"/><path d="m2554 2364c-18-14-18-15 4-4 12 6 22 13 22 15 0 8-5 6-26-11z"/><path d="m2423 2304c-127-56-280-91-449-103l-129-10 155 4c187 4 276 24 428 95 56 27 102 51 102 54 0 7 12 12-107-40z"/><path d="m3370 2009c-26-15-29-18-10-13 27 7 71 34 55 34-6-1-26-10-45-21z"/><path d="m2227 619c-111-9-187-24-187-38 0-26 323-54 532-46 231 9 302 16 343 34l40 18-44 12c-100 28-447 38-684 20z"/></g></svg>